<?xml version="1.0" encoding="utf-8"?>
<!-- Generator: Adobe Illustrator 26.3.1, SVG Export Plug-In . SVG Version: 6.00 Build 0)  -->
<svg version="1.1" id="Jolly_Rogers_x2122_" xmlns="http://www.w3.org/2000/svg" xmlns:xlink="http://www.w3.org/1999/xlink"
	 x="0px" y="0px" viewBox="0 0 3001.5 3000" style="enable-background:new 0 0 3001.5 3000;" xml:space="preserve">
<style type="text/css">
	.st0{fill:#FFFFFF;}
	.st1{opacity:0.1;enable-background:new    ;}
</style>
<rect id="BLK" x="1.5" width="3000" height="3000"/>
<g id="Background">
	<g>
		<path class="st0" d="M1583.9,873.6c12.3,0.1,23.3,3.9,32.7,11.9c7.3,6.2,12.4,14,15.4,23.2c2.2,6.7,3,13.5,2.5,20.5
			c-0.8,12.2-5.2,22.9-13.5,31.8c-8,8.6-17.9,13.9-29.6,15.6c-15,2.2-28.4-1.8-39.9-11.6c-9.5-8-15.3-18.3-17.3-30.5
			c-2.7-16.3,1.2-31,12-43.7c7.5-8.8,17.2-14.3,28.6-16.4C1577.7,873.9,1580.8,873.6,1583.9,873.6L1583.9,873.6L1583.9,873.6z
			 M1625.4,925.8c0-7.5-1.6-14.2-4.9-20.6c-4.1-7.8-10.1-13.8-17.9-17.8c-7-3.6-14.4-4.9-22.2-4.2c-5.9,0.5-11.4,2.2-16.5,5.2
			c-8.1,4.7-14,11.4-17.8,19.9c-3.5,8-4.5,16.2-2.9,24.8c1.8,9.7,6.4,17.9,13.9,24.4c9.7,8.4,21,11.8,33.7,9.7
			c10.1-1.7,18.4-6.5,24.9-14.3C1622.3,944.9,1625.3,935.7,1625.4,925.8L1625.4,925.8L1625.4,925.8z"/>
		<path class="st0" d="M1550.2,928.9c0-2,0-4.1,0-6.1c0-0.4,0.1-0.7,0.5-0.8c3.7-1.5,7.3-3.1,11-4.7c0.4-0.2,0.5-0.4,0.5-0.8
			c0-4.6,0-9.1,0-13.7c0-0.4,0.1-0.5,0.4-0.7c4.3-1.9,8.6-3.9,12.9-5.8c0.2-0.1,0.7-0.1,0.9,0.1c8.6,3.6,17.3,7.3,25.9,11
			c1.3,0.6,2.7,1.2,4.1,1.7c0.4,0.2,0.5,0.4,0.5,0.8c0,3.9,0,7.8,0,11.7c0,0.4,0.1,0.7,0.6,0.9c3.3,1.4,6.7,2.8,10,4.2
			c0.4,0.2,0.5,0.4,0.5,0.7c0,4.5,0,9,0,13.6c0,0.4-0.2,0.6-0.5,0.8c-4.3,1.9-8.6,3.8-12.9,5.6c-0.2,0.1-0.6,0.1-0.8,0
			c-4.4-1.8-8.8-3.7-13.3-5.5c-4.6-1.9-9.2-3.9-13.9-5.8c-0.2-0.1-0.6-0.1-0.9,0c-4.1,1.7-8.1,3.4-12.2,5.1c-0.3,0.1-0.7,0.1-1,0
			c-4-1.8-8-3.5-12-5.3c-0.4-0.2-0.5-0.4-0.5-0.8C1550.2,932.9,1550.2,930.9,1550.2,928.9L1550.2,928.9L1550.2,928.9L1550.2,928.9z
			 M1579.4,924.2c0,0.1-0.1,0.2-0.1,0.2c0,2.9,0,5.8,0,8.8c0,0.4,0.2,0.5,0.5,0.6c7.2,3,14.5,6.1,21.7,9.2c0.3,0.1,0.7,0.3,1,0.4
			c0-0.1,0.1-0.2,0.1-0.2v-8.6c0-0.5-0.2-0.7-0.6-0.9c-5.4-2.3-10.9-4.5-16.3-6.8C1583.6,925.9,1581.5,925,1579.4,924.2
			L1579.4,924.2L1579.4,924.2L1579.4,924.2z M1614.9,930.4c-0.1,0-0.2,0-0.3,0c-2.8,1.2-5.6,2.4-8.4,3.6c-0.3,0.1-0.3,0.4-0.3,0.7v8
			c0,0.1,0,0.3,0,0.5c3-1.3,5.9-2.6,8.7-3.8c0.1,0,0.2-0.2,0.2-0.4C1614.9,936.1,1614.9,933.3,1614.9,930.4L1614.9,930.4
			L1614.9,930.4z M1612.3,927.9c-2.5-1.1-4.9-2.1-7.3-3.1c-0.2-0.1-0.4,0-0.6,0.1c-1.7,0.7-3.4,1.5-5.1,2.2
			c-0.8,0.3-1.6,0.7-2.4,1.1c2.4,1.1,4.7,2.1,7.1,3.1c0.1,0.1,0.3,0.1,0.5,0C1607,930.2,1609.6,929.1,1612.3,927.9L1612.3,927.9
			L1612.3,927.9z"/>
	</g>
	<g>
		<path class="st0" d="M1512.6,924.5c0,7.1-0.8,13-2.8,18.8c-2.2,6.2-5.6,11.8-10,16.6c-3.6,3.9-7.6,7.3-12.2,10.1
			c-4.8,2.9-10,4.8-15.4,6c-4.5,1-9.1,1.5-13.8,1.3c-7.5-0.4-14.6-2.2-21.3-5.7c-4.9-2.5-9.2-5.8-13.2-9.6c-3.8-3.7-6.9-8-9.4-12.8
			c-2.7-5.3-4.5-10.9-5.3-16.8c-0.5-3.7-0.7-7.4-0.3-11.1c0.5-5.4,1.7-10.7,3.8-15.7c2.6-5.9,6.1-11.3,10.6-16
			c3.7-3.9,7.9-7.2,12.7-9.9c5.2-2.8,10.6-4.6,16.4-5.5c4.2-0.6,8.4-0.7,12.6-0.4c11.2,0.8,21.1,4.9,29.7,12.2
			c5.4,4.6,9.7,10.1,12.8,16.5c2.2,4.6,3.7,9.5,4.4,14.5C1512.4,919.9,1512.6,922.7,1512.6,924.5L1512.6,924.5L1512.6,924.5z
			 M1503.3,925.9c-0.1-1.5-0.1-3-0.3-4.5c-0.1-1.1-0.2-2.2-0.4-3.3c-0.8-4.4-2.1-8.5-4.2-12.5c-2.5-4.6-5.7-8.6-9.6-12
			c-3.1-2.8-6.6-5.1-10.4-6.8c-4.6-2.1-9.5-3.3-14.6-3.6c-4.4-0.3-8.8,0-13.2,1.1c-7.6,1.8-14,5.6-19.5,11.1
			c-3.6,3.6-6.4,7.7-8.7,12.2c-3.5,7.1-4.8,14.5-4,22.3c0.6,5.7,2.5,11,5.2,16c3.1,5.7,7.5,10.3,12.8,14c2.8,1.9,5.6,3.7,8.8,4.9
			c4.3,1.6,8.7,2.6,13.3,2.8c6.9,0.4,13.5-0.6,19.7-3.6c5.7-2.8,10.8-6.3,15.1-11.1c3.4-3.8,5.9-8,7.5-12.8
			C1502.6,935.5,1503.3,930.8,1503.3,925.9L1503.3,925.9L1503.3,925.9L1503.3,925.9z"/>
		<path class="st0" d="M1439.5,926.7c0-5.8,0.5-10.6,1.8-15.3c0.9-3.1,2.2-6,4.2-8.6c3-3.8,6.9-6,11.7-6.7c3.5-0.5,7-0.4,10.4,0.7
			c4.5,1.4,7.7,4.3,10.1,8.3c2,3.4,3.1,7,3.8,10.8c0.9,5,1,10.1,0.6,15.2c-0.4,4.4-1.2,8.6-3,12.7c-1.4,3.2-3.3,5.9-6.1,8.1
			c-2.7,2.1-5.8,3.2-9.2,3.6c-3.1,0.4-6.1,0.2-9.1-0.6c-4.8-1.3-8.3-4.3-10.8-8.5c-1.9-3.3-3.1-6.9-3.7-10.6
			C1439.7,932.4,1439.5,929,1439.5,926.7L1439.5,926.7L1439.5,926.7z M1469.4,916.7c-0.2,0.2-0.2,0.4-0.3,0.5
			c-4.2,7.1-8.3,14.1-12.5,21.2c-0.3,0.6-0.7,1.2-0.9,1.9c-0.4,1.2,0,2.2,1,2.9c0.6,0.4,1.2,0.8,2,0.9c2.1,0.4,4.1,0.2,5.9-0.8
			c1.7-1,2.7-2.6,3.5-4.4c1.2-2.9,1.6-5.9,1.7-8.9c0.2-3.5,0.2-6.9-0.1-10.3C1469.7,918.6,1469.6,917.7,1469.4,916.7L1469.4,916.7
			L1469.4,916.7z M1452.2,932.7c0.1-0.2,0.2-0.2,0.2-0.2c3.8-7,7.5-13.9,11.3-20.8c0.4-0.7,0.6-1.5,0.4-2.3c-0.2-1.2-1-2.1-2-2.2
			c-1.2-0.1-2.4-0.1-3.6,0.3c-2.4,0.8-3.8,2.5-4.8,4.6c-1.2,2.7-1.7,5.5-1.8,8.5c-0.1,2.8,0,5.6,0,8.4
			C1452,930.1,1452.1,931.3,1452.2,932.7L1452.2,932.7L1452.2,932.7z"/>
	</g>
</g>
<g id="FIlter">
	<rect class="st1" width="3000" height="3000"/>
</g>
<g id="Punk_Skull">
	<path class="st0" d="M2086.8,1121.3h-258.2c-2.2,7.6-3,235.5-0.8,250.1h259v250c-42.7,0.4-85.5,0-129.2,0.2v249.3h-130.3v-122.7
		c-7.7-2.4-115.5-3.2-131.7-1c-0.1,20.3,0,40.8-0.1,61.3c0,20.6,0,41.2,0,62.4h-130.3v-122.8c-8.1-2.3-118-2.8-130.1-0.6v122.1
		c-7.9,2.3-118.3,2.9-131.2,0.7v-248.4h-260.8c-0.5-12.9-0.2-24.8-0.2-36.6c-0.1-11.7,0-23.3,0-35v-178.6H913.3
		c-2.2-8.1-2.7-612.8-0.6-625.1h129.9c0.6-41.7,0-82.5,0.3-123.2c7.9-2.3,885.3-3.4,914.3-1.2c0.1,13.3,0.2,26.8,0.2,40.3
		c0,13.7,0,27.3,0,41v41.3c8.9,2.8,17.5,1,26,1.3c8.7,0.3,17.3,0.1,26,0.1h77.4L2086.8,1121.3L2086.8,1121.3L2086.8,1121.3z
		 M1173.3,1122v248.5c12.8,2.1,253.8,1.6,260.9-0.5v-248L1173.3,1122L1173.3,1122z M1565.4,1372v123.8h129
		c2.1-13.5,1.5-116.9-0.6-123.8H1565.4z"/>
	<path class="st0" d="M1826.2,2371.1h-391.3v-124.6h-129.6c-2.3-8.2-3.2-226.7-1.3-248.3c6.7-2.2,114.6-3,130.5-0.7v123.7h130.2
		c0.2-13.7,0.1-27.2,0.1-40.8c0-14,0-28,0-42V1997h130.3v122.7c7.8,2.4,116.3,3,131.5,0.9V1997h130.2V2246h-129.6
		c-0.2,4.6-0.5,8.1-0.5,11.7c0,34.3,0,68.6-0.1,103C1826.7,2364.2,1826.4,2367.7,1826.2,2371.1L1826.2,2371.1L1826.2,2371.1z"/>
</g>
</svg>